<svg xmlns="http://www.w3.org/2000/svg" viewBox="0 0 512 512" width="512" height="512">
  <circle cx="256" cy="256" r="200" fill="black"/>
  <path d="M256,256L496.00,256.00L494.84,279.52Z" fill="#ff0000"/>
  <path d="M256,256L491.39,302.82L485.67,325.67Z" fill="#ff2f00"/>
  <path d="M256,256L477.73,347.84L467.66,369.14Z" fill="#ff5f00"/>
  <path d="M256,256L455.55,389.34L441.52,408.25Z" fill="#ff8f00"/>
  <path d="M256,256L425.71,425.71L408.25,441.52Z" fill="#ffbf00"/>
  <path d="M256,256L389.34,455.55L369.14,467.66Z" fill="#ffef00"/>
  <path d="M256,256L347.84,477.73L325.67,485.67Z" fill="#dfff00"/>
  <path d="M256,256L302.82,491.39L279.52,494.84Z" fill="#afff00"/>
  <path d="M256,256L256.00,496.00L232.48,494.84Z" fill="#7fff00"/>
  <path d="M256,256L209.18,491.39L186.33,485.67Z" fill="#4fff00"/>
  <path d="M256,256L164.16,477.73L142.86,467.66Z" fill="#1fff00"/>
  <path d="M256,256L122.66,455.55L103.75,441.52Z" fill="#00ff0f"/>
  <path d="M256,256L86.29,425.71L70.48,408.25Z" fill="#00ff3f"/>
  <path d="M256,256L56.45,389.34L44.34,369.14Z" fill="#00ff6f"/>
  <path d="M256,256L34.27,347.84L26.33,325.67Z" fill="#00ff9f"/>
  <path d="M256,256L20.61,302.82L17.16,279.52Z" fill="#00ffcf"/>
  <path d="M256,256L16.00,256.00L17.16,232.48Z" fill="#00ffff"/>
  <path d="M256,256L20.61,209.18L26.33,186.33Z" fill="#00cfff"/>
  <path d="M256,256L34.27,164.16L44.34,142.86Z" fill="#009fff"/>
  <path d="M256,256L56.45,122.66L70.48,103.75Z" fill="#006fff"/>
  <path d="M256,256L86.29,86.29L103.75,70.48Z" fill="#003fff"/>
  <path d="M256,256L122.66,56.45L142.86,44.34Z" fill="#000fff"/>
  <path d="M256,256L164.16,34.27L186.33,26.33Z" fill="#1f00ff"/>
  <path d="M256,256L209.18,20.61L232.48,17.16Z" fill="#4f00ff"/>
  <path d="M256,256L256.00,16.00L279.52,17.16Z" fill="#7f00ff"/>
  <path d="M256,256L302.82,20.61L325.67,26.33Z" fill="#af00ff"/>
  <path d="M256,256L347.84,34.27L369.14,44.34Z" fill="#df00ff"/>
  <path d="M256,256L389.34,56.45L408.25,70.48Z" fill="#ff00ef"/>
  <path d="M256,256L425.71,86.29L441.52,103.75Z" fill="#ff00bf"/>
  <path d="M256,256L455.55,122.66L467.66,142.86Z" fill="#ff008f"/>
  <path d="M256,256L477.73,164.16L485.67,186.33Z" fill="#ff005f"/>
  <path d="M256,256L491.39,209.18L494.84,232.48Z" fill="#ff002f"/>
  <circle cx="256" cy="256" r="10.0" fill="black"/>
</svg>
