<svg xmlns="http://www.w3.org/2000/svg" viewBox="0 0 512 512" width="512" height="512">
  <rect width="512" height="512" fill="black"/>
  <path d="M256,256L618.00,256.00L616.26,291.48Z" fill="#ff0000"/>
  <path d="M256,256L611.04,326.62L602.41,361.08Z" fill="#ff2f00"/>
  <path d="M256,256L590.44,394.53L575.26,426.65Z" fill="#ff5f00"/>
  <path d="M256,256L556.99,457.12L535.83,485.65Z" fill="#ff8f00"/>
  <path d="M256,256L511.97,511.97L485.65,535.83Z" fill="#ffbf00"/>
  <path d="M256,256L457.12,556.99L426.65,575.26Z" fill="#ffef00"/>
  <path d="M256,256L394.53,590.44L361.08,602.41Z" fill="#dfff00"/>
  <path d="M256,256L326.62,611.04L291.48,616.26Z" fill="#afff00"/>
  <path d="M256,256L256.00,618.00L220.52,616.26Z" fill="#7fff00"/>
  <path d="M256,256L185.38,611.04L150.92,602.41Z" fill="#4fff00"/>
  <path d="M256,256L117.47,590.44L85.35,575.26Z" fill="#1fff00"/>
  <path d="M256,256L54.88,556.99L26.35,535.83Z" fill="#00ff0f"/>
  <path d="M256,256L0.03,511.97L-23.83,485.65Z" fill="#00ff3f"/>
  <path d="M256,256L-44.99,457.12L-63.26,426.65Z" fill="#00ff6f"/>
  <path d="M256,256L-78.44,394.53L-90.41,361.08Z" fill="#00ff9f"/>
  <path d="M256,256L-99.04,326.62L-104.26,291.48Z" fill="#00ffcf"/>
  <path d="M256,256L-106.00,256.00L-104.26,220.52Z" fill="#00ffff"/>
  <path d="M256,256L-99.04,185.38L-90.41,150.92Z" fill="#00cfff"/>
  <path d="M256,256L-78.44,117.47L-63.26,85.35Z" fill="#009fff"/>
  <path d="M256,256L-44.99,54.88L-23.83,26.35Z" fill="#006fff"/>
  <path d="M256,256L0.03,0.03L26.35,-23.83Z" fill="#003fff"/>
  <path d="M256,256L54.88,-44.99L85.35,-63.26Z" fill="#000fff"/>
  <path d="M256,256L117.47,-78.44L150.92,-90.41Z" fill="#1f00ff"/>
  <path d="M256,256L185.38,-99.04L220.52,-104.26Z" fill="#4f00ff"/>
  <path d="M256,256L256.00,-106.00L291.48,-104.26Z" fill="#7f00ff"/>
  <path d="M256,256L326.62,-99.04L361.08,-90.41Z" fill="#af00ff"/>
  <path d="M256,256L394.53,-78.44L426.65,-63.26Z" fill="#df00ff"/>
  <path d="M256,256L457.12,-44.99L485.65,-23.83Z" fill="#ff00ef"/>
  <path d="M256,256L511.97,0.03L535.83,26.35Z" fill="#ff00bf"/>
  <path d="M256,256L556.99,54.88L575.26,85.35Z" fill="#ff008f"/>
  <path d="M256,256L590.44,117.47L602.41,150.92Z" fill="#ff005f"/>
  <path d="M256,256L611.04,185.38L616.26,220.52Z" fill="#ff002f"/>
  <circle cx="256" cy="256" r="10.0" fill="#b3b3b3"/>
</svg>
