<svg xmlns="http://www.w3.org/2000/svg" viewBox="0 0 1000 1000"><g transform="matrix(1.24378 0 0 -1.24378 -63.433 924.129)"><path fill="#fff" fill-rule="nonzero" d="M290 -48Q255 -48 223.0 -28.5Q191 -9 171.0 22.0Q151 53 151 86Q151 126 173.0 162.5Q195 199 228.5 225.5Q262 252 295 264Q261 254 225 254Q179 254 139.0 271.0Q99 288 75.0 319.5Q51 351 51 394Q51 437 69.5 469.5Q88 502 119.0 520.0Q150 538 187 538Q231 538 277.5 512.5Q324 487 355 448Q338 473 325.5 509.5Q313 546 313 586Q313 626 330.5 658.5Q348 691 379.5 710.5Q411 730 453 730Q515 730 553.0 688.5Q591 647 591 586Q591 549 580.0 512.5Q569 476 549 448L553 453Q585 493 628.5 515.5Q672 538 719 538Q755 538 786.0 520.5Q817 503 836.0 471.0Q855 439 855 395Q855 351 829.5 319.0Q804 287 764.0 270.5Q724 254 680 254Q657 255 639.0 257.5Q621 260 609 264Q644 252 677.5 225.5Q711 199 733.0 163.0Q755 127 755 84Q755 54 735.5 23.5Q716 -7 684.0 -27.5Q652 -48 615 -48Q566 -48 529.5 -17.5Q493 13 473 64Q463 90 458.0 111.5Q453 133 453 150Q442 58 399.5 5.0Q357 -48 290 -48ZM397 432 429 444Q434 455 435.5 465.0Q437 475 437 482Q437 492 433.0 507.5Q429 523 429 530Q429 544 435.0 554.0Q441 564 453 564Q465 564 471.0 554.0Q477 544 477 530Q477 520 472.0 506.0Q467 492 467 482Q467 465 475 444L507 432Q527 452 539.0 485.5Q551 519 551 554Q551 601 524.0 629.5Q497 658 453 658Q410 658 381.5 629.5Q353 601 353 554Q353 519 365.0 485.5Q377 452 397 432ZM251 278Q292 278 321 294V328Q316 336 301.0 342.0Q286 348 261 350Q212 355 212 380Q212 391 219.5 396.0Q227 401 236 401Q242 401 252.5 397.5Q263 394 276 386Q302 370 331 370H335L355 398Q345 419 323.0 438.5Q301 458 273.0 471.0Q245 484 215 484Q173 484 146.5 454.0Q120 424 120 382Q120 337 156.5 307.5Q193 278 251 278ZM654 278Q713 278 749.5 307.5Q786 337 786 382Q786 426 758.5 455.0Q731 484 690 484Q660 484 631.0 471.0Q602 458 580.5 438.0Q559 418 549 398L571 370H575L583 371Q595 373 607.0 376.0Q619 379 631 386Q655 401 668 401Q692 401 692 379Q692 354 653 352Q613 350 585 328L583 294Q612 278 654 278ZM306 16Q340 16 366.5 41.0Q393 66 408.5 101.5Q424 137 424 168V178L423 186L391 196Q356 175 347 141Q338 107 314 107Q305 107 298.5 114.5Q292 122 292 130Q292 150 318 168Q344 186 353 222L335 250Q309 245 278.0 226.0Q247 207 225.5 178.0Q204 149 204 114Q204 88 219.0 65.5Q234 43 257.5 29.5Q281 16 306 16ZM594 16Q620 16 643.5 30.0Q667 44 681.5 66.5Q696 89 696 114Q696 149 674.5 177.5Q653 206 622.5 225.0Q592 244 565 250L547 222Q551 205 559.5 192.0Q568 179 581 168Q607 147 607 128Q607 120 600.5 113.5Q594 107 586 107Q564 107 552 141Q541 172 509 196L477 186L476 178V168Q476 150 483.5 125.5Q491 101 504.5 77.5Q518 54 536 39Q564 16 594 16Z"/></g></svg>