<svg xmlns="http://www.w3.org/2000/svg" viewBox="0 0 1000 1000"><path fill="#fff" fill-rule="evenodd" d="M 0.00 0.00 L 1000.00 0.00 L 1000.00 62.50 L 0.00 62.50 Z M 0.00 125.00 L 1000.00 125.00 L 1000.00 187.50 L 0.00 187.50 Z M 0.00 250.00 L 1000.00 250.00 L 1000.00 312.50 L 0.00 312.50 Z M 0.00 375.00 L 1000.00 375.00 L 1000.00 437.50 L 0.00 437.50 Z M 0.00 500.00 L 1000.00 500.00 L 1000.00 562.50 L 0.00 562.50 Z M 0.00 625.00 L 1000.00 625.00 L 1000.00 687.50 L 0.00 687.50 Z M 0.00 750.00 L 1000.00 750.00 L 1000.00 812.50 L 0.00 812.50 Z M 0.00 875.00 L 1000.00 875.00 L 1000.00 937.50 L 0.00 937.50 Z"/></svg>